<svg width="24" height="24" viewBox="0 0 24 24" fill="none" xmlns="http://www.w3.org/2000/svg">
<g id="bag-17 1" clip-path="url(#clip0_9302_1543)">
<g id="Group">
<path id="Vector" d="M23.25 3V21.75C23.25 22.578 22.578 23.25 21.75 23.25H2.25C1.422 23.25 0.75 22.578 0.75 21.75V3" stroke="#F2994A" stroke-width="2" stroke-linecap="round" stroke-linejoin="round"/>
<path id="Vector_2" d="M17.25 9.75C17.25 12.6495 14.8995 15 12 15C9.1005 15 6.75 12.6495 6.75 9.75" stroke="#F2994A" stroke-width="2" stroke-linecap="round" stroke-linejoin="round"/>
<path id="Vector_3" d="M21 5.25H3C1.758 5.25 0.75 4.242 0.75 3C0.75 1.758 1.758 0.75 3 0.75H21C22.242 0.75 23.25 1.758 23.25 3C23.25 4.242 22.242 5.25 21 5.25Z" stroke="#F2994A" stroke-width="2" stroke-linecap="round" stroke-linejoin="round"/>
</g>
</g>
<defs>
<clipPath id="clip0_9302_1543">
<rect width="24" height="24" fill="white"/>
</clipPath>
</defs>
</svg>
