<svg width="40" height="40" viewBox="0 0 40 40" fill="none" xmlns="http://www.w3.org/2000/svg">
<g id="comments 1" clip-path="url(#clip0_9302_1781)">
<path id="Vector" d="M34.717 0.3125H12.4458C9.54086 0.3125 7.16406 2.6893 7.16406 5.59422V7.39141H27.3102C30.2152 7.39141 32.592 9.7682 32.592 12.6731V25.8409H34.717C37.622 25.8409 39.9987 23.4641 39.9987 20.5591V5.59422C39.9987 2.68922 37.622 0.3125 34.717 0.3125Z" fill="#6C7ED6"/>
<path id="Vector_2" d="M30.9723 7.14844H8.70102C8.16695 7.14844 7.65094 7.22937 7.16406 7.37859V7.38992H27.3102C30.2152 7.38992 32.592 9.76672 32.592 12.6716V25.8394H34.717C35.251 25.8394 35.767 25.7584 36.2539 25.6092V12.4302C36.254 9.52523 33.8772 7.14844 30.9723 7.14844Z" fill="#4F67D2"/>
<path id="Vector_3" d="M27.553 7.14844H5.28172C2.3768 7.14844 0 9.52523 0 12.4302V27.395C0 30.2999 2.3768 32.6767 5.28172 32.6767H18.6486C19.2216 32.6767 19.6495 33.21 19.5184 33.7678C19.1639 35.277 18.6215 36.8729 17.8196 38.5089C17.4595 39.2437 18.2787 39.9906 18.9745 39.56C20.9862 38.3149 23.8486 36.2311 26.2591 33.2852C26.576 32.898 27.0526 32.6766 27.553 32.6766C30.4579 32.6766 32.8347 30.2998 32.8347 27.3949V12.4301C32.8347 9.52523 30.4579 7.14844 27.553 7.14844Z" fill="#60B8FE"/>
<path id="Vector_4" d="M22.9415 33.7708C23.0725 33.2129 22.6448 32.6797 22.0717 32.6797H18.6512C19.2242 32.6797 19.652 33.2129 19.5209 33.7708C19.1665 35.2799 18.6241 36.8759 17.8222 38.5119C17.4621 39.2466 18.2812 39.9936 18.977 39.563C19.7489 39.0852 20.6462 38.4836 21.5949 37.7577C22.2068 36.3855 22.6417 35.047 22.9415 33.7708Z" fill="#23A8FE"/>
<path id="Vector_5" d="M3.42055 27.395V12.4302C3.42055 9.52523 5.79734 7.14844 8.70227 7.14844H5.28172C2.3768 7.14844 0 9.52523 0 12.4302V27.395C0 30.2999 2.3768 32.6767 5.28172 32.6767H8.70227C5.79727 32.6767 3.42055 30.3 3.42055 27.395Z" fill="#23A8FE"/>
<g id="Group">
<path id="Vector_6" d="M7.32297 22.0952C8.29093 22.0952 9.07563 21.3105 9.07563 20.3425C9.07563 19.3745 8.29093 18.5898 7.32297 18.5898C6.355 18.5898 5.57031 19.3745 5.57031 20.3425C5.57031 21.3105 6.355 22.0952 7.32297 22.0952Z" fill="#DFEBFA"/>
<path id="Vector_7" d="M12.987 22.0952C13.955 22.0952 14.7397 21.3105 14.7397 20.3425C14.7397 19.3745 13.955 18.5898 12.987 18.5898C12.0191 18.5898 11.2344 19.3745 11.2344 20.3425C11.2344 21.3105 12.0191 22.0952 12.987 22.0952Z" fill="#DFEBFA"/>
<path id="Vector_8" d="M18.6433 22.0952C19.6112 22.0952 20.3959 21.3105 20.3959 20.3425C20.3959 19.3745 19.6112 18.5898 18.6433 18.5898C17.6753 18.5898 16.8906 19.3745 16.8906 20.3425C16.8906 21.3105 17.6753 22.0952 18.6433 22.0952Z" fill="#DFEBFA"/>
<path id="Vector_9" d="M24.3073 22.0952C25.2753 22.0952 26.06 21.3105 26.06 20.3425C26.06 19.3745 25.2753 18.5898 24.3073 18.5898C23.3394 18.5898 22.5547 19.3745 22.5547 20.3425C22.5547 21.3105 23.3394 22.0952 24.3073 22.0952Z" fill="#DFEBFA"/>
</g>
<path id="Vector_10" d="M7.32297 20.3425C7.32297 19.6939 7.67563 19.128 8.1993 18.8249C7.94141 18.6757 7.64234 18.5898 7.32297 18.5898C6.355 18.5898 5.57031 19.3745 5.57031 20.3425C5.57031 21.3105 6.355 22.0952 7.32297 22.0952C7.64234 22.0952 7.94148 22.0093 8.1993 21.8601C7.67555 21.557 7.32297 20.9911 7.32297 20.3425Z" fill="#B1DBFC"/>
<path id="Vector_11" d="M12.9792 20.3425C12.9792 19.6939 13.3319 19.128 13.8555 18.8249C13.5977 18.6757 13.2986 18.5898 12.9792 18.5898C12.0112 18.5898 11.2266 19.3745 11.2266 20.3425C11.2266 21.3105 12.0112 22.0952 12.9792 22.0952C13.2986 22.0952 13.5977 22.0093 13.8555 21.8601C13.3318 21.557 12.9792 20.9911 12.9792 20.3425Z" fill="#B1DBFC"/>
<path id="Vector_12" d="M18.6433 20.3425C18.6433 19.6939 18.9959 19.128 19.5196 18.8249C19.2617 18.6757 18.9626 18.5898 18.6433 18.5898C17.6753 18.5898 16.8906 19.3745 16.8906 20.3425C16.8906 21.3105 17.6753 22.0952 18.6433 22.0952C18.9627 22.0952 19.2618 22.0093 19.5196 21.8601C18.9959 21.557 18.6433 20.9911 18.6433 20.3425Z" fill="#B1DBFC"/>
<path id="Vector_13" d="M24.3073 20.3425C24.3073 19.6939 24.6599 19.128 25.1837 18.8249C24.9258 18.6757 24.6266 18.5898 24.3073 18.5898C23.3394 18.5898 22.5547 19.3745 22.5547 20.3425C22.5547 21.3105 23.3394 22.0952 24.3073 22.0952C24.6267 22.0952 24.9259 22.0093 25.1837 21.8601C24.6599 21.557 24.3073 20.9911 24.3073 20.3425Z" fill="#B1DBFC"/>
</g>
<defs>
<clipPath id="clip0_9302_1781">
<rect width="40" height="40" fill="white"/>
</clipPath>
</defs>
</svg>
