<svg width="40" height="40" viewBox="0 0 40 40" fill="none" xmlns="http://www.w3.org/2000/svg">
<g id="lightbulb 1" clip-path="url(#clip0_9302_1482)">
<g id="Group">
<path id="Vector" d="M24.3301 36.6016V37.6148C24.3301 37.7038 24.3253 37.7928 24.3158 37.8794C24.1839 39.0715 23.173 39.9989 21.946 39.9989H18.2904C17.0633 39.9989 16.0525 39.0715 15.9206 37.8794C15.911 37.7928 15.9062 37.7038 15.9062 37.6148V36.6016C16.2217 36.7422 16.5714 36.8201 16.9394 36.8201H23.297C23.6649 36.8201 24.0146 36.7422 24.3301 36.6016Z" fill="#50758D"/>
<g id="Group_2">
<path id="Vector_2" d="M20.0023 5.21031C19.673 5.21031 19.4062 4.94353 19.4062 4.61428V0.596027C19.4062 0.266782 19.673 0 20.0023 0C20.3315 0 20.5983 0.266782 20.5983 0.596027V4.61428C20.5983 4.94353 20.3314 5.21031 20.0023 5.21031Z" fill="#FFE7C9"/>
<path id="Vector_3" d="M9.30465 9.64281C9.15207 9.64281 8.99957 9.58464 8.88314 9.46829L6.04176 6.62683C5.809 6.39398 5.809 6.01666 6.04176 5.78389C6.27469 5.55112 6.65202 5.55128 6.8847 5.78389L9.72608 8.62535C9.95885 8.8582 9.95885 9.23552 9.72608 9.46829C9.60966 9.58464 9.45708 9.64281 9.30465 9.64281Z" fill="#FFE7C9"/>
<path id="Vector_4" d="M4.87217 20.3405H0.853839C0.524594 20.3405 0.257812 20.0737 0.257812 19.7445C0.257812 19.4152 0.524594 19.1484 0.853839 19.1484H4.87209C5.20134 19.1484 5.46812 19.4152 5.46812 19.7445C5.46812 20.0737 5.20134 20.3405 4.87217 20.3405Z" fill="#FFE7C9"/>
<path id="Vector_5" d="M6.46327 33.881C6.31077 33.881 6.15819 33.8228 6.04176 33.7065C5.809 33.4736 5.809 33.0963 6.04176 32.8636L8.88314 30.0222C9.11599 29.7895 9.49332 29.7895 9.72608 30.0222C9.95885 30.255 9.95885 30.6323 9.72608 30.8651L6.8847 33.7065C6.76828 33.8228 6.61578 33.881 6.46327 33.881Z" fill="#FFE7C9"/>
<path id="Vector_6" d="M33.539 33.881C33.3865 33.881 33.2339 33.8228 33.1175 33.7065L30.2761 30.8651C30.0434 30.6323 30.0434 30.2549 30.2761 30.0222C30.509 29.7895 30.8863 29.7895 31.1191 30.0222L33.9605 32.8636C34.1932 33.0964 34.1932 33.4737 33.9605 33.7065C33.8441 33.8228 33.6915 33.881 33.539 33.881Z" fill="#FFE7C9"/>
<path id="Vector_7" d="M39.1533 20.3405H35.1351C34.8058 20.3405 34.5391 20.0737 34.5391 19.7445C34.5391 19.4152 34.8058 19.1484 35.1351 19.1484H39.1533C39.4826 19.1484 39.7494 19.4152 39.7494 19.7445C39.7494 20.0737 39.4825 20.3405 39.1533 20.3405Z" fill="#FFE7C9"/>
<path id="Vector_8" d="M30.6976 9.64281C30.5451 9.64281 30.3926 9.58464 30.2761 9.46829C30.0434 9.23544 30.0434 8.85812 30.2761 8.62535L33.1175 5.78389C33.3504 5.5512 33.7277 5.5512 33.9605 5.78389C34.1932 6.01674 34.1932 6.39406 33.9605 6.62683L31.1191 9.46829C31.0027 9.58464 30.8502 9.64281 30.6976 9.64281Z" fill="#FFE7C9"/>
</g>
<path id="Vector_9" d="M20.1182 36.0273C20.1182 36.0273 16.2217 36.7442 15.9062 36.6035V37.6167C15.9062 37.7058 15.911 37.7948 15.9206 37.8814C16.0525 39.0734 17.0633 40.0009 18.2904 40.0009H19.3235C18.2868 40.0009 17.4046 39.3388 17.0762 38.4146C17.0207 38.2582 17.1345 38.0936 17.3003 38.0936H23.297C23.6594 38.0936 24.0043 38.0181 24.3158 37.8814C24.3253 37.7948 24.3301 37.7058 24.3301 37.6167V36.6035C24.0146 36.7442 20.1182 36.0273 20.1182 36.0273Z" fill="#2B597F"/>
<path id="Vector_10" d="M25.8398 34.2772C25.8398 35.3135 25.2191 36.206 24.3298 36.6017C24.0144 36.7424 23.6647 36.8203 23.2967 36.8203H16.9391C16.5712 36.8203 16.2215 36.7424 15.906 36.6017C15.0167 36.206 14.3961 35.3135 14.3961 34.2772C14.3961 34.2772 14.3587 30.5628 14.3516 30.4658V30.4627L20.1179 29.668L25.8183 30.4627L25.8398 34.2772Z" fill="#50758D"/>
<path id="Vector_11" d="M18.2901 36.8225H16.9391C16.5712 36.8225 16.2215 36.7446 15.906 36.6039C15.0167 36.2082 14.3961 35.3157 14.3961 34.2794C14.3961 34.2794 14.3587 30.565 14.3516 30.468V30.4648H15.7026V30.468C15.7097 30.565 15.7471 34.2794 15.7471 34.2794C15.7471 35.3157 16.3677 36.2082 17.257 36.6039C17.5724 36.7446 17.9221 36.8225 18.2901 36.8225Z" fill="#2B597F"/>
<path id="Vector_12" d="M25.8413 34.2389H23.8148C23.4858 34.2389 23.2188 33.9719 23.2188 33.6429C23.2188 33.3139 23.4858 33.0469 23.8148 33.0469H25.8349L25.8381 33.6429L25.8413 34.2389Z" fill="#2B597F"/>
<path id="Vector_13" d="M21.6289 33.6429C21.6289 33.9719 21.3619 34.2389 21.0329 34.2389H14.3963L14.3828 33.0469H21.0329C21.3619 33.0469 21.6289 33.3139 21.6289 33.6429Z" fill="#2B597F"/>
<path id="Vector_14" d="M20.0107 7.19288C20.0106 7.19288 20.0105 7.19288 20.0104 7.19288L20.0107 7.19264C13.8731 7.09823 8.71167 12.4475 8.82205 18.5404C8.82205 21.6485 10.053 24.4657 12.0477 26.5153C13.2231 27.724 14.2403 28.8414 14.3532 30.4642L25.8199 30.4832C25.8843 28.8128 26.834 27.6843 28.0173 26.4485C29.9739 24.4053 31.1786 21.6159 31.1786 18.5404C31.1785 12.2766 26.1799 7.19844 20.0107 7.19288Z" fill="#FAD207"/>
<path id="Vector_15" d="M25.8199 30.4806V30.483L14.3532 30.4639C14.2403 28.8411 13.2231 27.7238 12.0478 26.515C10.053 24.4655 8.82205 21.6483 8.82205 18.5402C8.71159 12.4472 13.8732 7.09807 20.0107 7.19264C20.2086 7.19264 20.4056 7.1982 20.6011 7.20854C14.8038 7.5447 10.0674 12.7007 10.173 18.5402C10.173 21.6483 11.404 24.4655 13.3987 26.515C14.5741 27.7238 15.5913 28.8411 15.7042 30.4639L25.8199 30.4806Z" fill="#FAA515"/>
<path id="Vector_16" d="M20.2851 24.2181C20.0473 24.5245 19.686 24.7099 19.2984 24.7243C19.2821 24.7249 19.2657 24.7252 19.2494 24.7252C18.8795 24.7252 18.5258 24.5688 18.2767 24.2932L14.5416 20.1608C14.056 19.6235 14.0979 18.7944 14.6352 18.3087C15.1724 17.8231 16.0014 17.865 16.4872 18.4023L19.1733 21.3741L23.4589 15.8548C23.903 15.2828 24.7268 15.1791 25.2987 15.6233C25.8708 16.0674 25.9744 16.8912 25.5302 17.4632L20.2851 24.2181Z" fill="#FAA515"/>
</g>
</g>
<defs>
<clipPath id="clip0_9302_1482">
<rect width="40" height="40" fill="white"/>
</clipPath>
</defs>
</svg>
