<svg width="40" height="40" viewBox="0 0 40 40" fill="none" xmlns="http://www.w3.org/2000/svg">
<g id="question-mark 1" clip-path="url(#clip0_9302_1507)">
<g id="Group">
<g id="Group_2">
<g id="Group_3">
<g id="Group_4">
<path id="Vector" d="M12.2329 29.115C11.148 29.5881 9.88488 29.0923 9.41176 28.0074L9.04832 27.1742C8.20269 25.2353 8.66723 22.9684 10.2043 21.5332C11.3604 20.4537 11.6517 18.7178 10.9124 17.3117C10.1029 15.7721 8.25824 15.056 6.62144 15.6458C4.88973 16.2687 3.92027 18.1384 4.41293 19.9003C4.45699 20.0578 4.51285 20.2145 4.57894 20.3661C5.05207 21.451 4.55621 22.7141 3.47129 23.1872C2.38644 23.6603 1.12332 23.1645 0.650195 22.0796C0.505116 21.747 0.382304 21.4021 0.285116 21.0543C-0.808868 17.1414 1.33582 12.9939 5.16832 11.6135C8.80644 10.3024 12.9068 11.8946 14.7061 15.3171C16.3415 18.4278 15.6931 22.2721 13.1293 24.666C12.9171 24.864 12.856 25.1833 12.9769 25.4606L13.3404 26.2938C13.8136 27.3788 13.3178 28.6419 12.2329 29.115Z" fill="#FFD15B"/>
</g>
<path id="Vector_2" d="M14.7809 34.9602C13.696 35.4333 12.4329 34.9374 11.9598 33.8525L11.9527 33.8363C11.4795 32.7514 11.9754 31.4883 13.0603 31.0152C14.1452 30.542 15.4083 31.0379 15.8814 32.1228L15.8885 32.1391C16.3616 33.224 15.8657 34.487 14.7809 34.9602Z" fill="#FFD15B"/>
</g>
<g id="Group_5">
<g id="Group_6">
<path id="Vector_3" d="M2.02114 20.2958C2.11793 20.6436 2.24129 20.988 2.38637 21.3206C2.72356 22.0938 3.46184 22.5683 4.2509 22.6048C4.04543 22.8486 3.7827 23.0496 3.47075 23.1857C2.38653 23.6586 1.12301 23.1633 0.649731 22.0781C0.504653 21.7455 0.382309 21.4006 0.285434 21.0528C-0.80941 17.1394 1.33606 12.9921 5.16809 11.6116C5.30536 11.5623 5.4434 11.5173 5.58215 11.4766C2.59715 13.2409 1.06043 16.8587 2.02114 20.2958Z" fill="#FFC344"/>
<path id="Vector_4" d="M11.9366 20.7726C10.3998 22.2078 9.93477 24.4753 10.7804 26.4141L11.1437 27.2471C11.4809 28.0203 12.2202 28.4943 13.0092 28.5309C12.8038 28.7746 12.541 28.9756 12.2291 29.1117C11.1439 29.585 9.88133 29.0893 9.40805 28.0042L9.04477 27.1711C8.19922 25.2323 8.6632 22.9653 10.201 21.5296C11.3568 20.4498 11.6477 18.7149 10.9084 17.3089C10.2136 15.9863 8.75492 15.2713 7.32031 15.4708C7.62234 15.2235 7.96977 15.024 8.3543 14.8856C9.99109 14.2955 11.8356 15.0115 12.6451 16.5515C13.3843 17.9574 13.0925 19.6928 11.9366 20.7726Z" fill="#FFC344"/>
</g>
<path id="Vector_5" d="M15.561 34.3755C15.3556 34.6193 15.0928 34.8203 14.7809 34.9564C13.6957 35.4297 12.4332 34.9339 11.9599 33.8488L11.9526 33.8321C11.4797 32.7479 11.975 31.4843 13.0602 31.0111C13.3722 30.875 13.6982 30.8192 14.0167 30.8345C13.5071 31.4386 13.3515 32.3029 13.6882 33.0751L13.6955 33.0918C14.0328 33.8649 14.7721 34.3389 15.561 34.3755Z" fill="#FFC344"/>
</g>
</g>
<g id="Group_7">
<g id="Group_8">
<g id="Group_9">
<path id="Vector_6" d="M29.3301 28.9072C28.1869 28.6009 27.5084 27.4257 27.8147 26.2825L28.05 25.4045C28.5975 23.3613 30.3739 21.8783 32.4704 21.7144C34.0474 21.591 35.3573 20.4153 35.6557 18.855C35.9826 17.1466 34.9867 15.4367 33.3392 14.8775C31.5968 14.285 29.6733 15.1426 28.9601 16.8274C28.8964 16.9779 28.8423 17.1353 28.7996 17.2951C28.4932 18.4383 27.3181 19.1168 26.1749 18.8105C25.0317 18.5042 24.3532 17.329 24.6595 16.1858C24.7534 15.8353 24.8724 15.4891 25.0132 15.1566C26.5971 11.415 30.8595 9.50908 34.7168 10.8188C38.3787 12.0617 40.5922 15.8628 39.8657 19.6606C39.2052 23.1123 36.3017 25.714 32.8046 25.9876C32.5154 26.0102 32.2685 26.2217 32.1902 26.5139L31.9549 27.392C31.6485 28.5351 30.4733 29.2135 29.3301 28.9072Z" fill="#6FD7A3"/>
</g>
<path id="Vector_7" d="M27.6827 35.0668C26.5395 34.7604 25.861 33.5853 26.1673 32.4421L26.1719 32.4249C26.4782 31.2817 27.6534 30.6032 28.7966 30.9095C29.9398 31.2158 30.6183 32.391 30.312 33.5342L30.3074 33.5514C30.001 34.6946 28.826 35.3731 27.6827 35.0668Z" fill="#6FD7A3"/>
</g>
<g id="Group_10">
<g id="Group_11">
<path id="Vector_8" d="M26.8428 15.6472C26.7017 15.9795 26.5835 16.3257 26.4895 16.6763C26.2713 17.491 26.5528 18.3222 27.1469 18.8427C26.8342 18.9052 26.5035 18.8987 26.1748 18.8105C25.0323 18.5044 24.3531 17.3295 24.6595 16.1859C24.7534 15.8353 24.8727 15.4894 25.0138 15.1571C26.5974 11.4146 30.8603 9.5093 34.7172 10.8188C34.8553 10.8657 34.9913 10.9166 35.1252 10.9713C31.6912 10.49 28.2343 12.3608 26.8428 15.6472Z" fill="#3EC3A4"/>
<path id="Vector_9" d="M34.301 22.2033C32.2047 22.3675 30.4275 23.8506 29.8801 25.8937L29.6449 26.7715C29.4266 27.5862 29.7091 28.4177 30.3032 28.9382C29.9906 29.0007 29.6599 28.9941 29.3311 28.906C28.1875 28.5996 27.5094 27.4249 27.8158 26.2813L28.051 25.4035C28.5985 23.3604 30.3745 21.877 32.472 21.7132C34.0488 21.5894 35.3578 20.4141 35.6562 18.854C35.9374 17.3867 35.2426 15.9183 33.9965 15.18C34.3868 15.1749 34.7828 15.2355 35.1699 15.3669C36.8176 15.9259 37.8134 17.6356 37.4863 19.3444C37.1879 20.9046 35.8779 22.0796 34.301 22.2033Z" fill="#3EC3A4"/>
</g>
<path id="Vector_10" d="M28.6548 35.0992C28.3421 35.1617 28.0114 35.1551 27.6827 35.067C26.5391 34.7606 25.861 33.5859 26.1674 32.4424L26.172 32.4248C26.4782 31.2823 27.6531 30.6031 28.7967 30.9095C29.1255 30.9976 29.4152 31.1572 29.6546 31.3677C28.8795 31.5224 28.2191 32.1012 28.001 32.9149L27.9963 32.9325C27.7781 33.7472 28.0606 34.5787 28.6548 35.0992Z" fill="#3EC3A4"/>
</g>
</g>
<g id="Group_12">
<g id="Group_13">
<g id="Group_14">
<path id="Vector_11" d="M20.9652 26.0602C19.6363 26.0602 18.5591 24.983 18.5591 23.6541V22.6335C18.5591 20.2586 20.0546 18.1341 22.2805 17.3472C23.9548 16.7552 25.0338 15.0994 24.9041 13.3206C24.762 11.3729 23.1851 9.80789 21.2359 9.68024C19.1742 9.54406 17.3373 11.033 17.0535 13.0673C17.0281 13.2491 17.0153 13.4355 17.0153 13.6213C17.0153 14.9501 15.938 16.0273 14.6092 16.0273C13.2804 16.0273 12.2031 14.9501 12.2031 13.6213C12.2031 13.2139 12.2316 12.8038 12.2876 12.4023C12.918 7.8843 16.9867 4.57875 21.5504 4.87821C25.8829 5.16196 29.388 8.64094 29.7037 12.9707C29.9905 16.9059 27.5977 20.5713 23.8848 21.8841C23.5777 21.9927 23.3713 22.2938 23.3713 22.6335V23.6541C23.3713 24.983 22.294 26.0602 20.9652 26.0602Z" fill="#0573CE"/>
</g>
<path id="Vector_12" d="M20.9686 33.2188C19.6398 33.2188 18.5625 32.1416 18.5625 30.8127V30.7928C18.5625 29.464 19.6398 28.3867 20.9686 28.3867C22.2974 28.3867 23.3747 29.464 23.3747 30.7928V30.8127C23.3747 32.1416 22.2974 33.2188 20.9686 33.2188Z" fill="#0573CE"/>
</g>
<g id="Group_15">
<g id="Group_16">
<path id="Vector_13" d="M14.4145 12.4028C14.358 12.8042 14.3303 13.214 14.3303 13.6215C14.3303 14.5685 14.8771 15.3881 15.6727 15.7799C15.3519 15.9386 14.9913 16.0275 14.6091 16.0275C13.2811 16.0275 12.2031 14.9507 12.2031 13.6215C12.2031 13.214 12.232 12.8042 12.2884 12.4028C12.9182 7.88397 16.9876 4.57889 21.5509 4.87819C21.7143 4.88897 21.8766 4.9046 22.0376 4.92506C18.1737 5.401 14.9685 8.43444 14.4145 12.4028Z" fill="#0067C5"/>
<path id="Vector_14" d="M24.4105 17.3469C22.1847 18.1341 20.6884 20.2589 20.6884 22.6337V23.654C20.6884 24.601 21.2365 25.4207 22.0321 25.8125C21.7113 25.9712 21.3507 26.0601 20.9685 26.0601C19.6393 26.0601 18.5625 24.9832 18.5625 23.654V22.6337C18.5625 20.2589 20.0576 18.1341 22.2845 17.3469C23.9587 16.7544 25.0367 15.0995 24.9069 13.3208C24.7855 11.6478 23.6053 10.2574 22.0393 9.81869C22.4612 9.69971 22.9082 9.65041 23.3661 9.68049C25.3155 9.80791 26.8923 11.3727 27.0341 13.3208C27.1638 15.0995 26.0846 16.7543 24.4105 17.3469Z" fill="#0067C5"/>
</g>
<path id="Vector_15" d="M22.0321 32.9716C21.7113 33.1303 21.3507 33.2192 20.9685 33.2192C19.6393 33.2192 18.5625 32.1424 18.5625 30.8132V30.7927C18.5625 29.4647 19.6393 28.3867 20.9685 28.3867C21.3507 28.3867 21.7113 28.4756 22.0321 28.6343C21.2365 29.0273 20.6884 29.847 20.6884 30.7927V30.8132C20.6884 31.7602 21.2365 32.5798 22.0321 32.9716Z" fill="#0067C5"/>
</g>
</g>
</g>
</g>
<defs>
<clipPath id="clip0_9302_1507">
<rect width="40" height="40" fill="white"/>
</clipPath>
</defs>
</svg>
