<?xml version="1.0" encoding="iso-8859-1"?>
<!-- Uploaded to: SVG Repo, www.svgrepo.com, Generator: SVG Repo Mixer Tools -->
<svg fill="#000000" version="1.1" id="Layer_1" xmlns="http://www.w3.org/2000/svg" xmlns:xlink="http://www.w3.org/1999/xlink" 
	 viewBox="0 0 496 496" xml:space="preserve">
<g>
	<g>
		<g>
			<path d="M464,400h-4.32c7.632-8.504,12.32-19.696,12.32-32c0-23.736-17.336-43.448-40-47.28V256H256v-48h72v-72
				c0-22.056-17.944-40-40-40h-0.888C297.52,85.824,304,71.664,304,56c0-30.88-25.128-56-56-56s-56,25.12-56,56
				c0,15.664,6.48,29.824,16.888,40H208c-22.056,0-40,17.944-40,40v72h72v48H64v64.72c-22.664,3.832-40,23.544-40,47.28
				c0,12.304,4.688,23.496,12.32,32H32c-17.648,0-32,14.352-32,32v64h144v-64c0-17.648-14.352-32-32-32h-4.32
				c7.632-8.504,12.32-19.696,12.32-32c0-23.736-17.336-43.448-40-47.28V272h160v48.72c-22.664,3.824-40,23.536-40,47.28
				c0,12.304,4.688,23.496,12.32,32H208c-17.648,0-32,14.352-32,32v64h144v-64c0-17.648-14.352-32-32-32h-4.32
				c7.632-8.504,12.32-19.696,12.32-32c0-23.736-17.336-43.448-40-47.28V272h160v48.72c-22.664,3.824-40,23.536-40,47.28
				c0,12.304,4.688,23.496,12.32,32H384c-17.648,0-32,14.352-32,32v64h144v-64C496,414.352,481.648,400,464,400z M112,416
				c8.824,0,16,7.176,16,16v48h-16v-40H96v40H48v-40H32v40H16v-48c0-8.824,7.176-16,16-16H112z M104,368c0,17.648-14.352,32-32,32
				s-32-14.352-32-32s14.352-32,32-32S104,350.352,104,368z M208,56c0-22.056,17.944-40,40-40c22.056,0,40,17.944,40,40
				c0,22.056-17.944,40-40,40C225.944,96,208,78.056,208,56z M288,416c8.824,0,16,7.176,16,16v48h-16v-40h-16v40h-48v-40h-16v40h-16
				v-48c0-8.824,7.176-16,16-16H288z M280,368c0,17.648-14.352,32-32,32s-32-14.352-32-32s14.352-32,32-32S280,350.352,280,368z
				 M216,192v-48h-16v48h-16v-56c0-13.232,10.768-24,24-24h80c13.232,0,24,10.768,24,24v56h-16v-48h-16v48H216z M424,336
				c17.648,0,32,14.352,32,32s-14.352,32-32,32s-32-14.352-32-32S406.352,336,424,336z M480,480h-16v-40h-16v40h-48v-40h-16v40h-16
				v-48c0-8.824,7.176-16,16-16h80c8.824,0,16,7.176,16,16V480z"/>
			<rect x="280" y="288" width="16" height="16"/>
			<rect x="312" y="288" width="16" height="16"/>
			<rect x="344" y="288" width="16" height="16"/>
			<rect x="376" y="288" width="16" height="16"/>
			<rect x="104" y="288" width="16" height="16"/>
			<rect x="136" y="288" width="16" height="16"/>
			<rect x="168" y="288" width="16" height="16"/>
			<rect x="200" y="288" width="16" height="16"/>
		</g>
	</g>
</g>
</svg>